<svg width="655" height="207" viewBox="0 0 655 207" fill="none" xmlns="http://www.w3.org/2000/svg">
<path fill-rule="evenodd" clip-rule="evenodd" d="M57.3486 33.1928C57.2279 35.0212 58.6874 36.5679 60.5203 36.5679H91.9783C93.8112 36.5679 95.2707 35.0212 95.15 33.1928C93.9319 14.4662 85.9338 0 76.2464 0C66.5591 0 58.561 14.4662 57.3429 33.1928H57.3486ZM26.6375 21.7453C24.4599 25.6091 23.0809 29.6626 22.5236 33.8369V33.8426C22.3167 35.4123 20.9607 36.5737 19.3806 36.5737H0.0576172C1.32743 21.0496 21.1216 7.92311 48.6783 2.57592C44.9838 4.25482 41.5306 6.27869 38.3934 8.63606C33.3716 12.4021 29.4185 16.8178 26.6375 21.7453ZM76.2522 120.829C86.7812 120.829 95.3166 112.288 95.3166 101.752C95.3166 91.2157 86.7812 82.6745 76.2522 82.6745C65.7232 82.6745 57.1877 91.2157 57.1877 101.752C57.1877 112.288 65.7232 120.829 76.2522 120.829ZM152.516 89.0332C152.516 111.826 142.528 132.28 126.698 146.263C142.531 160.246 152.521 180.702 152.521 203.498H114.392V184.42C114.392 173.887 105.86 165.343 95.328 165.343L75.5971 165.337C62.4105 188.152 37.7612 203.503 9.53222 203.503V165.349H28.5967C34.6987 165.349 40.1284 162.48 43.6161 158.018C17.8291 145.777 0 119.489 0 89.0332H38.1289V108.111C38.1289 118.644 46.6614 127.188 57.1934 127.188H95.3223C105.849 127.188 114.387 118.65 114.387 108.111V89.0332H152.516ZM95.1555 43.1221C95.2762 41.2937 93.8168 39.7471 91.9839 39.7471H60.5258C58.6929 39.7471 57.2335 41.2937 57.3541 43.1221C58.5723 61.8488 66.5704 76.315 76.2577 76.315C85.9451 76.315 93.9432 61.8488 95.1613 43.1221H95.1555ZM22.5236 42.4781C23.0866 46.6524 24.4599 50.7059 26.6375 54.5697V54.5755C29.4127 59.5029 33.3716 63.9129 38.3934 67.6847C41.5306 70.0421 44.9838 72.0659 48.6783 73.7449C21.1273 68.3919 1.32743 55.2654 0.0576172 39.7471H19.3806C20.9607 39.7471 22.311 40.9085 22.5236 42.4781ZM129.981 33.8368C129.418 29.6625 128.044 25.609 125.867 21.7452V21.7395C123.092 16.812 119.133 12.402 114.111 8.63021C110.974 6.27285 107.52 4.24896 103.826 2.57006C131.377 7.923 151.177 21.0495 152.447 36.5679H133.124C131.544 36.5679 130.193 35.4064 129.981 33.8368ZM129.981 42.479C129.423 46.6533 128.044 50.7068 125.867 54.5706C123.086 59.498 119.133 63.9138 114.111 67.6798C110.974 70.0372 107.52 72.0611 103.826 73.74C131.383 68.3928 151.177 55.2663 152.447 39.7422H133.124C131.544 39.7422 130.188 40.9036 129.981 42.4733V42.479ZM92.5757 9.75081C90.6508 5.90429 88.3755 2.85122 85.8646 0.683594H85.8703C107.061 3.73092 123.574 16.6447 126.596 32.807C126.964 34.7619 125.459 36.5673 123.471 36.5673H101.533C99.8498 36.5673 98.4593 35.2506 98.3616 33.5717C97.8503 24.6137 95.8392 16.2882 92.5757 9.75081ZM66.6337 0.683594C45.4433 3.72517 28.93 16.6389 25.9077 32.807C25.54 34.7619 27.0454 36.5673 29.0334 36.5673H50.9708C52.6543 36.5673 54.0448 35.2564 54.1424 33.5717C54.6538 24.6137 56.6648 16.2882 59.9284 9.75081C61.8533 5.89854 64.1228 2.85122 66.6395 0.683594H66.6337ZM101.528 39.7471H123.459C125.447 39.7471 126.953 41.5525 126.585 43.5073C123.563 59.6754 107.049 72.5892 85.8589 75.6307C88.3755 73.4631 90.6451 70.4158 92.5699 66.5635C95.8335 60.0261 97.8446 51.7006 98.3559 42.7426C98.4536 41.058 99.8441 39.7471 101.528 39.7471ZM50.9651 39.7471H29.0335C27.0455 39.7471 25.5401 41.5525 25.9078 43.5073C28.9301 59.6697 45.4434 72.5834 66.6338 75.6307C64.1229 73.4631 61.8476 70.41 59.9228 66.5635C56.6592 60.0261 54.6482 51.7006 54.1368 42.7426C54.0391 41.0637 52.6486 39.7471 50.9651 39.7471ZM327.147 61.7341H362.184H362.19V89.0336H389.339V121.312H362.19V158.001C362.19 162.336 363.236 165.659 365.322 167.982C367.407 170.305 370.464 171.467 374.486 171.467H389.339V203.509H369.384C354.686 203.509 343.631 200.031 336.202 193.062C328.773 186.094 325.061 175.417 325.061 161.019V121.312H305.106V89.0336H310.208C315.621 89.0336 319.798 87.6767 322.74 84.9686C325.676 82.2662 327.147 77.9655 327.147 72.0835V61.7341ZM249.878 85.7853C260.243 85.7853 269.293 87.7976 277.026 91.8224L277.032 91.8339C284.766 95.8587 290.684 101.511 294.781 108.784C298.878 116.057 300.929 124.417 300.929 133.858V203.515H264.96V192.16C262.478 195.633 259.427 198.605 255.796 201.078C249.998 205.028 242.92 207 234.565 207C226.981 207 220.212 205.488 214.26 202.469C208.301 199.45 203.664 195.316 200.338 190.05C197.011 184.783 195.35 178.826 195.35 172.168C195.35 159.783 199.993 150.107 209.272 143.144C218.557 136.181 232.014 132.697 249.648 132.697H263.8V130.144C263.8 125.814 262.484 122.33 259.858 119.697C257.227 117.063 253.664 115.747 249.182 115.747C246.246 115.747 243.615 116.247 241.293 117.253C238.972 118.259 237.116 119.691 235.726 121.548C234.335 123.405 233.485 125.653 233.175 128.281H196.281C196.586 119.921 199.062 112.527 203.705 106.105C208.347 99.6822 214.645 94.6857 222.614 91.1267C230.578 87.5676 239.512 85.7853 249.878 85.7853ZM244.304 178.895C247.706 178.895 251.038 177.889 254.285 175.877V175.871C257.531 173.864 260.122 171.036 262.059 167.396C263.754 164.211 264.661 160.675 264.868 156.834H250.573C244.224 156.834 239.507 157.88 236.415 159.967C233.324 162.06 231.778 165.039 231.778 168.908C231.778 171.852 232.859 174.25 235.025 176.107C237.191 177.964 240.282 178.895 244.304 178.895ZM434.575 61.7341H397.452V203.504H434.575V61.7341ZM497.687 85.7853C508.052 85.7853 517.102 87.7976 524.835 91.8224L524.841 91.8339C532.575 95.8587 538.493 101.511 542.59 108.784C546.687 116.057 548.738 124.417 548.738 133.858V203.515H512.769V192.16C510.287 195.633 507.236 198.605 503.605 201.078C497.807 205.028 490.729 207 482.374 207C474.79 207 468.021 205.488 462.069 202.469C456.11 199.45 451.474 195.316 448.147 190.05C444.82 184.783 443.159 178.826 443.159 172.168C443.159 159.783 447.802 150.107 457.081 143.144C466.367 136.181 479.823 132.697 497.457 132.697H511.609V130.144C511.609 125.814 510.293 122.33 507.667 119.697C505.036 117.063 501.473 115.747 496.991 115.747C494.055 115.747 491.424 116.247 489.103 117.253C486.781 118.259 484.925 119.691 483.535 121.548C482.144 123.405 481.294 125.653 480.984 128.281H444.09C444.395 119.921 446.871 112.527 451.514 106.105C456.156 99.6822 462.454 94.6857 470.423 91.1267C478.387 87.5676 487.321 85.7853 497.687 85.7853ZM492.113 178.895C495.515 178.895 498.847 177.889 502.094 175.877V175.871C505.34 173.864 507.931 171.036 509.868 167.396C511.563 164.211 512.471 160.675 512.677 156.834H498.382C492.033 156.834 487.316 157.88 484.224 159.967C481.133 162.06 479.588 165.039 479.588 168.908C479.588 171.852 480.668 174.25 482.834 176.107C485 177.964 488.091 178.895 492.113 178.895ZM648.162 146.151C643.595 141.201 638.337 137.716 632.385 135.704C626.426 133.697 619.043 131.834 610.223 130.132C606.661 129.362 603.455 128.626 600.593 127.925C597.732 127.229 595.526 126.297 593.98 125.136C592.429 123.975 591.659 122.543 591.659 120.841C591.659 118.518 592.699 116.701 594.79 115.385C596.882 114.074 599.622 113.412 603.024 113.412C606.425 113.412 609.557 114.344 612.424 116.201C615.285 118.058 616.952 120.381 617.411 123.17H653.609C652.213 110.94 646.996 101.654 637.947 95.3067C628.897 88.9591 617.411 85.7853 603.489 85.7853C594.204 85.7853 586.045 87.4929 579.006 90.891C571.968 94.3005 566.55 98.9405 562.763 104.822C558.971 110.704 557.081 117.282 557.081 124.561C557.081 133.076 559.247 139.769 563.579 144.645C567.911 149.52 573.014 153.005 578.892 155.092C584.77 157.185 591.963 159.076 600.473 160.778C604.029 161.554 607.235 162.331 610.103 163.101C612.964 163.877 615.17 164.843 616.716 166.005C618.262 167.166 619.037 168.672 619.037 170.535C619.037 172.858 617.991 174.715 615.906 176.107C613.82 177.498 610.689 178.2 606.511 178.2C601.869 178.2 598.157 177.193 595.37 175.181C592.584 173.169 591.038 170.535 590.728 167.287H555.69C556.311 179.672 561.177 189.348 570.307 196.311C579.432 203.28 591.423 206.758 606.276 206.758C615.866 206.758 624.335 205.051 631.684 201.647C639.027 198.243 644.755 193.482 648.852 187.37C652.949 181.258 655 174.25 655 166.355C655 157.846 652.713 151.107 648.157 146.157L648.162 146.151Z" fill="white"/>
</svg>
